<svg width="46" height="47" viewBox="0 0 46 47" fill="none" xmlns="http://www.w3.org/2000/svg">
<g clip-path="url(#clip0_11_67)">
<path d="M23.2492 4.76526L31.1223 12.5854H23.2492V4.76526ZM37.0411 39.6355H37.236V39.0347C37.236 38.0314 37.632 37.1171 38.2688 36.4525C38.9119 35.7834 39.7983 35.3667 40.7746 35.3667C41.7518 35.3667 42.6392 35.7825 43.2813 36.4525C43.919 37.1171 44.3142 38.0314 44.3142 39.0347V39.6355H44.5091C44.827 39.6355 45.0866 39.8951 45.0866 40.213V45.9225C45.0866 46.2404 44.827 46.5 44.5091 46.5H37.0411C36.7231 46.5 36.4636 46.2404 36.4636 45.9225V40.213C36.4636 39.8951 36.7231 39.6355 37.0411 39.6355ZM40.3175 43.3269L39.7157 44.9013H41.8335L41.2767 43.3053C41.6297 43.1239 41.8721 42.7557 41.8721 42.3299C41.8721 41.7237 41.3809 41.2333 40.7746 41.2333C40.1684 41.2333 39.678 41.7237 39.678 42.3299C39.678 42.7727 39.9403 43.1535 40.3175 43.3269ZM38.329 39.6355H43.2212V39.0347C43.2212 38.3215 42.9427 37.6749 42.4955 37.2088C42.0527 36.7471 41.4437 36.4606 40.7746 36.4606C40.1064 36.4606 39.4966 36.7471 39.0547 37.2088C38.6065 37.6749 38.329 38.3215 38.329 39.0347V39.6355ZM32.6662 22.8502C36.5812 25.3318 40.1181 26.5065 43.1538 26.2281C43.3038 29.2701 43.0927 31.9591 42.552 34.3105C42.0976 34.1263 41.6153 34.0096 41.1186 33.9728C41.5183 32.066 41.6701 29.906 41.5506 27.4801C38.981 27.7154 35.9866 26.7212 32.6725 24.6204C29.8048 26.8478 26.8454 27.4999 23.8285 27.3427C23.6947 32.4369 24.5902 36.2729 26.3191 39.0634C27.598 37.9946 29.776 38.1563 30.8071 36.7381C30.8807 36.6286 30.9149 36.5702 30.9149 36.5217C30.914 36.4965 29.7958 35.1251 29.6952 34.9652C29.432 34.5458 28.9389 33.9772 28.9389 33.486C28.9389 33.2093 29.1572 32.8474 29.4697 32.7675C29.4455 32.3516 29.4293 31.9304 29.4293 31.5136C29.4293 31.2667 29.4338 31.017 29.4428 30.7727C29.4563 30.6182 29.485 30.5499 29.5263 30.4009C29.7186 29.7733 30.1382 29.24 30.7029 28.9055C30.9032 28.7788 31.1196 28.6809 31.3424 28.6001C31.7465 28.4528 31.5507 27.8151 31.9935 27.8052C33.03 27.7792 34.7337 28.6845 35.3975 29.4039C35.8205 29.8719 36.0621 30.3919 36.0765 31.0224L36.0342 32.8366C36.2184 32.8815 36.424 33.0252 36.4689 33.2093C36.6108 33.7815 36.0172 34.4946 35.7406 34.9499C35.4864 35.3703 34.5119 36.5172 34.5119 36.5271C34.5074 36.5765 34.5326 36.6384 34.599 36.7381C34.9619 37.2375 35.4666 37.5402 36.0235 37.771C35.9516 38.062 35.9049 38.3611 35.8852 38.6655C35.7962 38.7275 35.7145 38.7967 35.6382 38.8721L35.6337 38.8775C35.2951 39.2161 35.0849 39.6831 35.0849 40.1969V44.8196C34.3368 45.2417 33.5446 45.6099 32.7075 45.9243C25.9311 43.4517 21.9227 37.392 22.2209 26.0655C25.7838 26.2523 29.2793 25.4817 32.6662 22.8502ZM7.22823 21.4958C7.39079 21.3153 7.61442 21.2012 7.86051 21.1976L23.3364 21.1985C23.5923 21.1976 23.8205 21.3099 23.9839 21.4913C24.1438 21.67 24.2426 21.917 24.2426 22.191C24.2426 22.4559 24.1438 22.6993 23.9866 22.8789L23.9803 22.887C23.9264 22.9463 23.8663 22.9984 23.7998 23.0424C23.5025 23.0963 23.2016 23.1439 22.899 23.1843H7.87219C7.61712 23.1843 7.38899 23.0729 7.22553 22.8906C7.06476 22.7119 6.96597 22.4658 6.96597 22.191C6.96597 21.9215 7.06746 21.6754 7.22823 21.4958ZM7.22823 27.6831C7.39348 27.499 7.62251 27.384 7.87219 27.384H18.6481C18.6804 28.063 18.7262 28.7249 18.7855 29.3707H7.87219C7.61712 29.3707 7.38899 29.2593 7.22463 29.077C7.06476 28.8992 6.96597 28.6522 6.96597 28.3782C6.96597 28.1088 7.06746 27.8627 7.22823 27.6831ZM7.22823 33.8695C7.39348 33.6862 7.62251 33.5713 7.87219 33.5713H19.3962C19.5372 34.2557 19.6953 34.9185 19.8713 35.558H7.87219C7.61712 35.558 7.38899 35.4466 7.22463 35.2643C7.06387 35.0855 6.96597 34.8395 6.96597 34.5655C6.96597 34.2961 7.06746 34.0491 7.22823 33.8695ZM7.22912 15.3076C7.39348 15.1235 7.62251 15.0094 7.87219 15.0094H16.7638C17.0197 15.0094 17.2479 15.1217 17.4113 15.3031C17.5712 15.4819 17.67 15.7289 17.67 16.0028C17.67 16.2722 17.5694 16.5183 17.4077 16.6979C17.2425 16.8812 17.0143 16.9952 16.7638 16.9952H7.87219C7.61802 16.9952 7.38899 16.8839 7.22463 16.7015C7.06476 16.5237 6.96597 16.2767 6.96597 16.0019C6.96597 15.7333 7.06746 15.4864 7.22912 15.3076ZM7.22823 9.55324C7.39348 9.36913 7.62251 9.25506 7.87219 9.25506H12.7563C13.0078 9.25506 13.2332 9.36374 13.3957 9.54157L13.4029 9.54875C13.5637 9.72748 13.6616 9.97357 13.6616 10.2484C13.6616 10.5178 13.561 10.7639 13.3993 10.9436C13.235 11.1268 13.0069 11.2408 12.7563 11.2408H7.87219C7.61712 11.2408 7.38899 11.1295 7.22463 10.9472C7.06476 10.7693 6.96597 10.5223 6.96597 10.2484C6.96597 9.97896 7.06746 9.73287 7.22823 9.55324ZM35.1657 13.1826C35.1657 12.6015 34.7742 12.0986 34.238 11.9531L22.9573 0.969727C22.7229 0.677832 22.3646 0.5 21.973 0.5H2.29205C1.02478 0.5 0 1.52388 0 2.79115V42.0219C0 43.2874 1.02657 44.313 2.29205 44.313H24.38C23.7513 43.5918 23.1702 42.8104 22.6376 41.9689H2.34504V2.83157H20.9042V13.4296C20.9042 14.1338 21.4754 14.7149 22.1903 14.7149H32.8225V19.2352C33.6156 19.7301 34.3969 20.1845 35.1657 20.5977V13.1826Z" fill="#15ABD9"/>
</g>
<defs>
<clipPath id="clip0_11_67">
<rect width="45.0866" height="46" fill="white" transform="translate(0 0.5)"/>
</clipPath>
</defs>
</svg>
