<svg width="42" height="49" viewBox="0 0 42 49" fill="none" xmlns="http://www.w3.org/2000/svg">
<g clip-path="url(#clip0_11_77)">
<path fill-rule="evenodd" clip-rule="evenodd" d="M30.4554 26.7274C33.4562 26.7274 36.1748 27.9471 38.1454 29.9167C40.1225 31.8853 41.3421 34.6087 41.3421 37.6132C41.3421 40.6187 40.1225 43.3421 38.1529 45.3107L38.0291 45.4251C36.068 47.3272 33.3971 48.5 30.4554 48.5C27.4499 48.5 24.7275 47.2804 22.7588 45.3107C20.7892 43.3421 19.5695 40.6187 19.5695 37.6132C19.5695 34.6077 20.7892 31.8853 22.7588 29.9167C24.7275 27.9471 27.4499 26.7274 30.4554 26.7274ZM22.7907 4.06986V9.14904C22.8835 10.3612 23.3063 11.3136 24.0487 11.9474C24.8175 12.6045 25.9668 12.9729 27.4883 13.0001L31.0432 12.9964L22.7907 4.06986ZM31.3413 15.3654L27.4695 15.3616C25.3612 15.3288 23.7 14.7616 22.5104 13.7454C21.2701 12.6851 20.5717 11.1815 20.4301 9.31778L20.4198 9.15466V2.87084H5.89383C4.92449 2.87084 4.04234 3.26739 3.40487 3.90487C2.76739 4.54234 2.37084 5.42449 2.37084 6.39383V37.9385C2.37084 38.9041 2.76927 39.7863 3.40768 40.4247C4.04515 41.0622 4.92824 41.4606 5.89383 41.4606H17.0881C17.3262 42.2846 17.6384 43.0777 18.018 43.8314H5.89383C4.2739 43.8314 2.79833 43.1677 1.73056 42.1009C0.663724 41.0331 0 39.5585 0 37.9385V6.39383C0 4.77577 0.663724 3.30208 1.72962 2.23524C2.80208 1.16372 4.27577 0.5 5.89383 0.5H22.1944C22.5797 0.5 22.9219 0.683743 23.1385 0.968732L33.3934 12.0627C33.6034 12.2905 33.7065 12.5773 33.7065 12.8642L33.7093 24.0875C32.9425 23.9028 32.1512 23.7828 31.3413 23.7322V15.3654ZM9.80212 20.4736C9.14777 20.4736 8.61716 19.943 8.61716 19.2886C8.61716 18.6334 9.14777 18.1027 9.80212 18.1027H23.91C24.5644 18.1027 25.0959 18.6334 25.0959 19.2886C25.0959 19.943 24.5644 20.4736 23.91 20.4736H9.80212ZM9.80212 27.2515C9.14777 27.2515 8.61716 26.7208 8.61716 26.0656C8.61716 25.4112 9.14777 24.8806 9.80212 24.8806H23.1628C23.5106 24.8806 23.8238 25.0306 24.0412 25.2697C23.008 25.8083 22.0462 26.474 21.1782 27.2515H9.80212ZM9.80212 34.0293C9.14777 34.0293 8.61716 33.4987 8.61716 32.8434C8.61716 32.1891 9.14777 31.6585 9.80212 31.6585H17.8831C17.5249 32.4131 17.2315 33.2062 17.0121 34.0293H9.80212ZM26.1459 36.2352H26.9999V35.1074C26.9999 34.1324 27.3992 33.2475 28.0405 32.6062V32.6053C28.6817 31.9631 29.5676 31.5647 30.5426 31.5647C31.5166 31.5647 32.4025 31.9631 33.0446 32.6053V32.6062C33.6859 33.2475 34.0843 34.1324 34.0843 35.1074V36.2352H34.7668C34.9186 36.2352 35.0424 36.3598 35.0424 36.5127V41.7521C35.0424 41.904 34.9186 42.0287 34.7668 42.0287H26.1459C25.993 42.0287 25.8693 41.904 25.8693 41.7521V36.5127C25.8693 36.3598 25.993 36.2352 26.1459 36.2352ZM28.377 36.2352H32.7081V35.0877C32.7081 34.4924 32.4644 33.9506 32.0734 33.5578L32.0725 33.5587C31.6797 33.1659 31.1378 32.9212 30.5426 32.9212C29.9473 32.9212 29.4054 33.1659 29.0126 33.5578C28.6198 33.9506 28.377 34.4924 28.377 35.0877V36.2352Z" fill="#15ABD9"/>
</g>
<defs>
<clipPath id="clip0_11_77">
<rect width="41.3421" height="48" fill="white" transform="translate(0 0.5)"/>
</clipPath>
</defs>
</svg>
