<svg width="44" height="49" viewBox="0 0 44 49" fill="none" xmlns="http://www.w3.org/2000/svg">
<g clip-path="url(#clip0_11_57)">
<path fill-rule="evenodd" clip-rule="evenodd" d="M22.168 44.8633V29.8242C22.1711 28.8607 22.5552 27.9374 23.2366 27.2561C23.9179 26.5747 24.8411 26.1906 25.8047 26.1875H40.0625C41.0261 26.1906 41.9493 26.5747 42.6306 27.2561C43.312 27.9374 43.6961 28.8607 43.6992 29.8242V44.8633C43.6961 45.8269 43.312 46.7501 42.6306 47.4314C41.9493 48.1128 41.0261 48.4969 40.0625 48.5H25.8047C24.8411 48.4969 23.9179 48.1128 23.2366 47.4314C22.5552 46.7501 22.1711 45.8269 22.168 44.8633ZM23.2383 4.98047L30.8906 12.1484H23.2383V4.98047ZM8.09375 27.6016C7.87613 27.6137 7.67206 27.7111 7.52581 27.8727C7.37956 28.0343 7.30291 28.2471 7.3125 28.4648C7.30565 28.5732 7.32056 28.6817 7.35636 28.7842C7.39216 28.8866 7.44813 28.9809 7.52095 29.0614C7.59377 29.1418 7.68198 29.2069 7.78036 29.2527C7.87874 29.2985 7.9853 29.3242 8.09375 29.3281H17.6953V27.6016H8.09375ZM8.09375 33.7852C7.87613 33.7973 7.67206 33.8947 7.52581 34.0563C7.37956 34.2179 7.30291 34.4307 7.3125 34.6484C7.30565 34.7568 7.32056 34.8653 7.35636 34.9678C7.39216 35.0702 7.44813 35.1645 7.52095 35.245C7.59377 35.3254 7.68198 35.3905 7.78036 35.4363C7.87874 35.4821 7.9853 35.5078 8.09375 35.5117H17.6953V33.7852H8.09375ZM8.09375 15.2305C7.87613 15.2426 7.67206 15.34 7.52581 15.5016C7.37956 15.6633 7.30291 15.876 7.3125 16.0938C7.30619 16.2019 7.32148 16.3103 7.35748 16.4125C7.39348 16.5148 7.44947 16.6088 7.52219 16.6891C7.59491 16.7695 7.6829 16.8346 7.78104 16.8806C7.87917 16.9266 7.98547 16.9526 8.09375 16.957H16.9727C17.1892 16.9439 17.3921 16.8467 17.538 16.6862C17.684 16.5257 17.7614 16.3145 17.7539 16.0977C17.7602 15.9893 17.745 15.8807 17.709 15.7783C17.6731 15.6758 17.6171 15.5815 17.5444 15.5009C17.4718 15.4202 17.3838 15.3548 17.2857 15.3083C17.1875 15.2619 17.0811 15.2355 16.9727 15.2305H8.09375ZM8.09375 9.04688C7.87613 9.059 7.67206 9.15644 7.52581 9.31805C7.37956 9.47966 7.30291 9.69241 7.3125 9.91016C7.30565 10.0185 7.32056 10.1271 7.35636 10.2295C7.39216 10.332 7.44813 10.4262 7.52095 10.5067C7.59377 10.5871 7.68198 10.6522 7.78036 10.698C7.87874 10.7438 7.9853 10.7695 8.09375 10.7734H12.9766C13.1942 10.7613 13.3983 10.6639 13.5445 10.5023C13.6908 10.3407 13.7674 10.1279 13.7578 9.91016C13.7636 9.80209 13.7479 9.69394 13.7117 9.59195C13.6755 9.48995 13.6195 9.39613 13.5469 9.31589C13.4743 9.23564 13.3865 9.17056 13.2886 9.12439C13.1907 9.07822 13.0847 9.05188 12.9766 9.04688H8.09375ZM8.09375 21.418C7.87613 21.4301 7.67206 21.5275 7.52581 21.6891C7.37956 21.8508 7.30291 22.0635 7.3125 22.2813C7.30672 22.3893 7.32238 22.4975 7.35858 22.5995C7.39477 22.7015 7.4508 22.7953 7.52342 22.8755C7.59604 22.9558 7.68382 23.0209 7.78171 23.067C7.87959 23.1132 7.98564 23.1395 8.09375 23.1445H23.1094C23.3266 23.1314 23.5301 23.0337 23.6762 22.8723C23.8222 22.7109 23.8992 22.4987 23.8906 22.2813C23.8969 22.1731 23.8817 22.0647 23.8457 21.9625C23.8097 21.8603 23.7537 21.7662 23.6809 21.6859C23.6082 21.6055 23.5202 21.5404 23.4221 21.4944C23.324 21.4485 23.2177 21.4225 23.1094 21.418H8.09375ZM35.1563 13.1758C35.1566 12.8984 35.0663 12.6285 34.8992 12.4071C34.7321 12.1857 34.4973 12.0249 34.2305 11.9492L22.9453 0.968753C22.8275 0.822075 22.6782 0.703782 22.5085 0.622638C22.3388 0.541495 22.153 0.499581 21.9648 0.500003H2.29297C1.68552 0.500002 1.10288 0.741046 0.672979 1.17022C0.243076 1.59939 0.0010389 2.18161 4.05025e-06 2.78907V42.0039C-0.000563472 42.3051 0.0585154 42.6034 0.173832 42.8816C0.289148 43.1599 0.45842 43.4125 0.671879 43.625C1.10338 44.0522 1.68579 44.2922 2.29297 44.293H17.7305V41.7344H2.5586V3.0625H20.6797V13.4219C20.6797 13.7627 20.8151 14.0896 21.0561 14.3306C21.2971 14.5716 21.624 14.707 21.9648 14.707H32.5898V23.0859H35.1563V13.1758ZM32.9102 30.5781C35.207 32.0313 37.2813 32.7188 39.0586 32.5586C39.3711 38.8398 37.0469 42.5547 32.9336 44.1055C28.9648 42.6563 26.6133 39.1016 26.7891 32.4648C28.9943 32.6295 31.1803 31.9556 32.9102 30.5781ZM32.9688 32.1406C34.7383 33.2578 36.332 33.7891 37.7031 33.6641C37.9414 38.5078 36.1406 41.3672 32.9844 42.5586C32.9659 42.5485 32.9462 42.5406 32.9258 42.5352V32.168L32.9688 32.1406Z" fill="#15ABD9"/>
</g>
<defs>
<clipPath id="clip0_11_57">
<rect width="43.6992" height="48" fill="white" transform="translate(0 0.5)"/>
</clipPath>
</defs>
</svg>
