<svg width="34" height="34" viewBox="0 0 34 34" fill="none" xmlns="http://www.w3.org/2000/svg">
<g clip-path="url(#clip0_2315_648)">
<path d="M0 16.2363V14.8197L11.0179 24.4541L0.14388 32.9763C0.0491062 32.7609 0.000110936 32.5281 0 32.2928L0 16.2446V16.2363ZM22.6888 14.5762C22.6719 15.1567 22.5788 15.7326 22.4121 16.2889C22.2654 16.7736 22.033 17.2281 21.7259 17.6309C21.4453 18.0021 21.0826 18.3032 20.6662 18.5108C20.2468 18.7129 19.787 18.817 19.3215 18.8151C19.1229 18.8165 18.9249 18.7933 18.7321 18.7459C18.5474 18.701 18.3696 18.6312 18.2036 18.5384C18.042 18.4492 17.8947 18.3364 17.7664 18.2036C17.6969 18.1331 17.6331 18.0573 17.5755 17.9767C17.3459 18.2398 17.0607 18.4487 16.7407 18.5884C16.4206 18.7282 16.0735 18.7952 15.7244 18.7847C15.4878 18.7862 15.2523 18.7498 15.0272 18.6768C14.8083 18.6014 14.6035 18.4902 14.4212 18.3475C14.2364 18.2008 14.0767 18.0252 13.9481 17.8273C13.8067 17.6112 13.6959 17.3766 13.6188 17.1301C13.4515 16.568 13.3997 15.9778 13.4666 15.3952C13.5284 14.8311 13.6643 14.2775 13.8706 13.7489C14.0574 13.274 14.322 12.8335 14.6536 12.4457C14.958 12.0857 15.3352 11.7943 15.7604 11.5907C16.1762 11.4011 16.6289 11.3066 17.0858 11.314C17.4282 11.3114 17.7696 11.3532 18.1012 11.4385C18.4118 11.5203 18.7078 11.65 18.9784 11.8231L19.4294 12.1247C19.4555 12.1426 19.4765 12.1672 19.4901 12.1959C19.5037 12.2245 19.5095 12.2563 19.5068 12.2879L19.1222 16.4245C19.0764 16.6323 19.1047 16.8497 19.2025 17.0388C19.254 17.0999 19.3199 17.1473 19.3943 17.1768C19.4687 17.2062 19.5491 17.2168 19.6286 17.2075C19.7902 17.2068 19.9469 17.1523 20.0741 17.0526C20.2436 16.9089 20.3804 16.7306 20.4753 16.5296C20.6123 16.2676 20.7137 15.9884 20.7769 15.6996C20.853 15.3511 20.8965 14.9963 20.9069 14.6398C20.953 13.9521 20.8923 13.2614 20.7271 12.5923C20.5879 12.0441 20.3269 11.5343 19.9634 11.1009C19.615 10.6929 19.1711 10.3773 18.6712 10.1823C18.0985 9.9667 17.4901 9.86155 16.8783 9.87241C16.4621 9.86982 16.0476 9.9257 15.647 10.0384C15.2638 10.1491 14.8992 10.316 14.5651 10.5337C14.2212 10.758 13.9118 11.0311 13.6465 11.3444C13.3673 11.6758 13.1311 12.0412 12.9437 12.4318C12.7419 12.8532 12.5852 13.2946 12.4761 13.7489C12.3619 14.2414 12.2934 14.7434 12.2713 15.2486C12.2239 15.9637 12.2845 16.682 12.4512 17.3791C12.5878 17.9438 12.8498 18.4705 13.2176 18.9203C13.571 19.3378 14.024 19.6595 14.5347 19.8555C15.1336 20.078 15.7691 20.186 16.4079 20.1737C16.6076 20.1735 16.8071 20.1624 17.0055 20.1405C17.2103 20.1183 17.4233 20.0824 17.6364 20.0381C17.8494 19.9938 18.0459 19.9468 18.223 19.8942C18.383 19.8474 18.5401 19.7911 18.6934 19.7254C18.7148 19.7163 18.7378 19.7115 18.7611 19.7113C18.7844 19.7111 18.8075 19.7155 18.8291 19.7243C18.8507 19.733 18.8703 19.7459 18.8869 19.7623C18.9035 19.7786 18.9167 19.7981 18.9258 19.8195C18.9282 19.8351 18.9282 19.851 18.9258 19.8666L19.2052 21.0287C19.2121 21.0642 19.2084 21.1009 19.1946 21.1343C19.1809 21.1677 19.1576 21.1964 19.1278 21.2168C18.9536 21.3284 18.7681 21.4212 18.5744 21.4935C18.3522 21.5806 18.1237 21.6509 17.891 21.7038C17.642 21.7637 17.3898 21.809 17.1356 21.8394C16.883 21.8692 16.629 21.884 16.3747 21.8836C15.2052 21.9202 14.0458 21.6563 13.0073 21.1172C12.5523 20.8686 12.1418 20.546 11.7926 20.1626C11.4397 19.7686 11.1511 19.3213 10.9377 18.8373C10.7076 18.3115 10.5467 17.7581 10.459 17.1909C10.3567 16.5386 10.3206 15.8777 10.3511 15.2181C10.3756 14.5774 10.4683 13.9411 10.6278 13.32C10.7783 12.7319 10.9975 12.1636 11.2808 11.6266C11.5492 11.1212 11.8842 10.654 12.2769 10.2376C12.6619 9.82518 13.1035 9.46932 13.5884 9.18068C14.0768 8.89111 14.6029 8.67044 15.1517 8.52492C15.7215 8.37471 16.3084 8.29937 16.8976 8.3008C18.0072 8.2719 19.1048 8.53627 20.0796 9.06723C20.5211 9.31697 20.9207 9.63441 21.2638 10.008C21.6027 10.3873 21.8825 10.8154 22.0939 11.278C22.3237 11.7708 22.4875 12.2918 22.5809 12.8275C22.6821 13.4073 22.7182 13.9966 22.6888 14.5845V14.5762ZM15.5778 15.4063C15.5543 15.6631 15.5543 15.9215 15.5778 16.1782C15.5922 16.3597 15.6371 16.5374 15.7106 16.704C15.7605 16.8154 15.8399 16.9111 15.9403 16.9806C16.0389 17.042 16.1535 17.0728 16.2695 17.0692C16.3547 17.069 16.4388 17.0501 16.5158 17.0139C16.6065 16.967 16.688 16.9042 16.7565 16.8285C16.8465 16.7308 16.9237 16.622 16.9862 16.5047C17.0621 16.3647 17.126 16.2184 17.1771 16.0676L17.4538 13.0239H17.4067C17.3386 13.0194 17.2702 13.0194 17.202 13.0239C16.9867 13.0201 16.7736 13.0665 16.5794 13.1595C16.3968 13.2528 16.24 13.3897 16.1229 13.558C15.9737 13.788 15.8617 14.0401 15.7909 14.305C15.6921 14.6675 15.6245 15.0378 15.5889 15.4118L15.5778 15.4063ZM0.0415039 12.0278C0.276693 11.1065 1.58268 10.5143 2.30762 9.99969V6.04575C2.30762 5.60545 2.48253 5.18318 2.79387 4.87184C3.10521 4.5605 3.52747 4.3856 3.96777 4.3856H10.1851L16.1201 0.15773C16.272 0.0515801 16.4531 -0.00488443 16.6384 -0.00389343C16.8237 -0.00290242 17.0042 0.0554954 17.155 0.163264L22.9876 4.3856H29.0749C29.5152 4.3856 29.9374 4.5605 30.2488 4.87184C30.5601 5.18318 30.735 5.60545 30.735 6.04575V9.98862C31.5153 10.542 33.0426 11.2946 33.0426 12.3377V12.3792L29.0832 15.7245V6.04022H3.96777V15.4478L0.0415039 12.0278ZM33.0509 15.1572V32.2928C33.0516 32.6902 32.9125 33.0751 32.658 33.3802L21.6761 24.7446L33.0509 15.1572ZM30.0073 34H2.28548L12.6476 25.8791L15.7327 28.5768C15.9309 28.7506 16.1866 28.8443 16.45 28.8397C16.7135 28.8351 16.9658 28.7325 17.1577 28.5519L20.0132 26.1475L29.999 34H30.0073Z" fill="#15ABD9"/>
</g>
<defs>
<clipPath id="clip0_2315_648">
<rect width="33.0509" height="34" fill="white"/>
</clipPath>
</defs>
</svg>
