<svg width="30" height="34" viewBox="0 0 30 34" fill="none" xmlns="http://www.w3.org/2000/svg">
<g clip-path="url(#clip0_2315_640)">
<path fill-rule="evenodd" clip-rule="evenodd" d="M15.7493 20.2373C15.6757 20.2926 15.5867 20.3239 15.4946 20.3269C15.4026 20.3298 15.3118 20.3044 15.2347 20.2539C13.5348 19.1835 12.0255 17.8369 10.7689 16.2695C9.23072 14.4002 8.1963 12.1685 7.764 9.78662C7.40706 7.57585 7.7474 5.45085 8.85417 3.72152C9.30101 3.01905 9.86212 2.39621 10.5143 1.87874C11.9414 0.687235 13.7354 0.0237598 15.5944 0C17.3945 0.029042 19.1183 0.731995 20.4255 1.97005C20.9275 2.43025 21.3616 2.95941 21.7148 3.54167C22.8963 5.47852 23.1509 7.96875 22.6307 10.4922C22.1949 12.4946 21.3612 14.3891 20.1791 16.0632C18.997 17.7372 17.4906 19.1567 15.7493 20.2373ZM10.4922 20.4421V28.1396L18.8345 31.7367V21.8228C19.4629 21.3432 20.059 20.8228 20.6191 20.265V31.6592L27.5365 28.1756V12.6808L24.8774 13.7046C25.1445 12.9996 25.3645 12.2777 25.536 11.5436L28.1092 10.5503C28.3287 10.4702 28.571 10.4795 28.7837 10.5763C28.9964 10.6731 29.1626 10.8495 29.2464 11.0677C29.2866 11.17 29.3072 11.2788 29.3073 11.3887V28.7373C29.308 28.915 29.2558 29.0889 29.1572 29.2367C29.0586 29.3846 28.9182 29.4997 28.7539 29.5674L20.1211 33.9032C19.9959 33.9666 19.8575 33.9997 19.7171 33.9997C19.5768 33.9997 19.4384 33.9666 19.3132 33.9032L9.62891 29.7057L1.29492 33.9032C1.19047 33.9561 1.07661 33.9879 0.959844 33.9969C0.843079 34.0058 0.725703 33.9916 0.61443 33.9551C0.503157 33.9186 0.400168 33.8605 0.311356 33.7842C0.222544 33.7079 0.149649 33.6148 0.0968425 33.5103C0.0341773 33.3857 0.00103962 33.2484 3.01548e-08 33.1091V14.7311C-5.01252e-05 14.538 0.0624672 14.35 0.17819 14.1954C0.293913 14.0408 0.456613 13.9278 0.641927 13.8734L5.17415 12.1247C5.34244 12.695 5.54196 13.2557 5.77181 13.8042L1.78743 15.3398V31.6647L8.70475 28.1812V18.5633C9.26149 19.2256 9.85843 19.853 10.4922 20.4421ZM15.2596 3.9318C16.0104 3.9318 16.7444 4.15445 17.3687 4.57158C17.993 4.98872 18.4795 5.58161 18.7669 6.27528C19.0542 6.96894 19.1294 7.73224 18.9829 8.46863C18.8364 9.20503 18.4748 9.88145 17.9439 10.4124C17.413 10.9433 16.7366 11.3048 16.0002 11.4513C15.2638 11.5978 14.5005 11.5226 13.8068 11.2353C13.1132 10.948 12.5203 10.4614 12.1032 9.8371C11.686 9.21281 11.4634 8.47885 11.4634 7.72803C11.4634 6.72121 11.8633 5.75562 12.5753 5.04369C13.2872 4.33176 14.2528 3.9318 15.2596 3.9318Z" fill="#15ABD9"/>
</g>
<defs>
<clipPath id="clip0_2315_640">
<rect width="29.3101" height="34" fill="white"/>
</clipPath>
</defs>
</svg>
