<svg width="20" height="34" viewBox="0 0 20 34" fill="none" xmlns="http://www.w3.org/2000/svg">
<g clip-path="url(#clip0_2315_644)">
<path fill-rule="evenodd" clip-rule="evenodd" d="M3.68831 0H15.7715C16.7493 0.00218962 17.6864 0.391394 18.3781 1.08253C19.0697 1.77367 19.4596 2.71053 19.4626 3.68831V30.3117C19.4596 31.2895 19.0697 32.2263 18.3781 32.9175C17.6864 33.6086 16.7493 33.9978 15.7715 34H3.68831C2.71008 33.9985 1.77238 33.6091 1.08092 32.9171C0.389468 32.2251 0.000731661 31.2872 0 30.3089L0 3.68831C0.0014637 2.71056 0.390523 1.77327 1.0819 1.0819C1.77328 0.390523 2.71056 0.0014637 3.68831 0ZM9.72852 29.9852C10.0274 29.9846 10.3198 30.0728 10.5686 30.2384C10.8174 30.4041 11.0115 30.6399 11.1262 30.9159C11.241 31.1919 11.2713 31.4957 11.2133 31.789C11.1554 32.0822 11.0117 32.3517 10.8005 32.5632C10.5893 32.7748 10.3202 32.9189 10.027 32.9774C9.7339 33.036 9.43 33.0062 9.15379 32.8919C8.87758 32.7777 8.64147 32.584 8.47534 32.3355C8.30922 32.087 8.22054 31.7948 8.22054 31.4959C8.22127 31.096 8.38029 30.7125 8.66286 30.4295C8.94542 30.1464 9.32855 29.9867 9.72852 29.9852ZM18.4001 28.8258V4.6346H1.05973V28.8258H18.4001Z" fill="#15ABD9"/>
</g>
<defs>
<clipPath id="clip0_2315_644">
<rect width="19.4626" height="34" fill="white"/>
</clipPath>
</defs>
</svg>
