<svg width="64" height="64" viewBox="0 0 64 64" fill="none" xmlns="http://www.w3.org/2000/svg">
<path fill-rule="evenodd" clip-rule="evenodd" d="M32.1966 2C42.3862 8.4427 51.5618 11.5095 59.4637 10.7799C60.8487 38.6653 50.5478 55.1368 32.2955 62C14.6863 55.5697 4.26174 39.7906 5.0408 10.3471C14.303 10.8293 23.392 8.83842 32.1966 2ZM32.4192 11.5342C39.3689 15.9242 45.6261 18.014 51.0177 17.5317C51.9575 36.5383 44.9336 47.7791 32.4934 52.4534C32.4192 52.4163 32.3326 52.404 32.2584 52.3669V11.6579L32.4192 11.5342ZM32.1966 5.43776C41.2115 11.1385 49.3483 13.8467 56.3351 13.216C57.5593 37.8986 48.4332 52.4782 32.2832 58.5622C16.6896 52.8739 7.46454 38.925 8.14467 12.8574C16.3557 13.2902 24.406 11.5095 32.1966 5.46249V5.43776Z" fill="url(#paint0_linear_1_5)"/>
<defs>
<linearGradient id="paint0_linear_1_5" x1="11.8182" y1="2" x2="59.5455" y2="81.0909" gradientUnits="userSpaceOnUse">
<stop stop-color="#48C6EE"/>
<stop offset="1" stop-color="#15ABD9" stop-opacity="0"/>
</linearGradient>
</defs>
</svg>
