<svg width="182" height="44" viewBox="0 0 182 44" fill="none" xmlns="http://www.w3.org/2000/svg">
<path d="M59.86 25.1C59.86 25.9 60.04 26.6 60.4 27.2C60.76 27.8 61.24 28.27 61.84 28.61C62.46 28.95 63.14 29.12 63.88 29.12C64.48 29.12 65.06 29.03 65.62 28.85C66.18 28.65 66.68 28.39 67.12 28.07C67.58 27.73 67.93 27.34 68.17 26.9V30.89C67.69 31.33 67.06 31.68 66.28 31.94C65.52 32.18 64.63 32.3 63.61 32.3C62.15 32.3 60.83 32 59.65 31.4C58.49 30.8 57.57 29.96 56.89 28.88C56.23 27.78 55.9 26.52 55.9 25.1C55.9 23.66 56.23 22.4 56.89 21.32C57.57 20.24 58.49 19.4 59.65 18.8C60.83 18.2 62.15 17.9 63.61 17.9C64.63 17.9 65.52 18.03 66.28 18.29C67.06 18.53 67.69 18.86 68.17 19.28V23.27C67.93 22.83 67.57 22.45 67.09 22.13C66.63 21.79 66.12 21.53 65.56 21.35C65 21.17 64.44 21.08 63.88 21.08C63.14 21.08 62.46 21.26 61.84 21.62C61.24 21.96 60.76 22.43 60.4 23.03C60.04 23.63 59.86 24.32 59.86 25.1ZM84.7377 18.2L75.7377 38.6H71.7477L75.2277 30.62L69.4977 18.2H73.8177L78.2577 29.18L76.3377 29.12L80.6877 18.2H84.7377ZM90.2905 8.6V32H86.3905V8.6H90.2905ZM101.631 25.1C101.631 26.62 101.321 27.92 100.701 29C100.081 30.08 99.2605 30.9 98.2405 31.46C97.2405 32.02 96.1605 32.3 95.0005 32.3C93.8605 32.3 92.8405 32.01 91.9405 31.43C91.0605 30.85 90.3605 30.02 89.8405 28.94C89.3205 27.86 89.0605 26.58 89.0605 25.1C89.0605 23.6 89.3205 22.32 89.8405 21.26C90.3605 20.18 91.0605 19.35 91.9405 18.77C92.8405 18.19 93.8605 17.9 95.0005 17.9C96.1605 17.9 97.2405 18.18 98.2405 18.74C99.2605 19.3 100.081 20.12 100.701 21.2C101.321 22.26 101.631 23.56 101.631 25.1ZM97.6105 25.1C97.6105 24.28 97.4405 23.57 97.1005 22.97C96.7605 22.37 96.3005 21.91 95.7205 21.59C95.1605 21.27 94.5405 21.11 93.8605 21.11C93.2805 21.11 92.7105 21.27 92.1505 21.59C91.6105 21.89 91.1605 22.34 90.8005 22.94C90.4605 23.54 90.2905 24.26 90.2905 25.1C90.2905 25.94 90.4605 26.66 90.8005 27.26C91.1605 27.86 91.6105 28.32 92.1505 28.64C92.7105 28.94 93.2805 29.09 93.8605 29.09C94.5405 29.09 95.1605 28.93 95.7205 28.61C96.3005 28.29 96.7605 27.83 97.1005 27.23C97.4405 26.63 97.6105 25.92 97.6105 25.1ZM111.037 32.3C109.537 32.3 108.227 32 107.107 31.4C105.987 30.8 105.117 29.97 104.497 28.91C103.897 27.83 103.597 26.56 103.597 25.1C103.597 23.62 103.897 22.35 104.497 21.29C105.117 20.21 105.987 19.38 107.107 18.8C108.227 18.2 109.547 17.9 111.067 17.9C112.587 17.9 113.877 18.18 114.937 18.74C116.017 19.28 116.837 20.08 117.397 21.14C117.957 22.18 118.237 23.44 118.237 24.92C118.237 25.1 118.227 25.29 118.207 25.49C118.207 25.69 118.197 25.85 118.177 25.97H105.817V23.57H114.787L113.737 24.95C113.817 24.83 113.887 24.67 113.947 24.47C114.027 24.25 114.067 24.07 114.067 23.93C114.067 23.25 113.937 22.67 113.677 22.19C113.437 21.71 113.087 21.33 112.627 21.05C112.167 20.77 111.627 20.63 111.007 20.63C110.247 20.63 109.607 20.8 109.087 21.14C108.587 21.46 108.197 21.95 107.917 22.61C107.657 23.25 107.517 24.05 107.497 25.01C107.497 25.93 107.627 26.71 107.887 27.35C108.167 27.99 108.577 28.48 109.117 28.82C109.657 29.16 110.307 29.33 111.067 29.33C111.927 29.33 112.657 29.17 113.257 28.85C113.877 28.51 114.387 28.01 114.787 27.35L118.177 28.4C117.457 29.7 116.497 30.68 115.297 31.34C114.117 31.98 112.697 32.3 111.037 32.3ZM124.978 18.2V32H121.168V18.2H124.978ZM129.028 22.25C128.768 22.01 128.498 21.83 128.218 21.71C127.958 21.57 127.628 21.5 127.228 21.5C126.748 21.5 126.338 21.63 125.998 21.89C125.658 22.15 125.398 22.52 125.218 23C125.058 23.46 124.978 24.02 124.978 24.68L123.898 23.6C123.898 22.5 124.108 21.53 124.528 20.69C124.948 19.83 125.498 19.15 126.178 18.65C126.858 18.13 127.558 17.87 128.278 17.87C128.778 17.87 129.248 17.96 129.688 18.14C130.148 18.32 130.518 18.59 130.798 18.95L129.028 22.25ZM131.43 30.23C131.43 29.55 131.66 28.98 132.12 28.52C132.6 28.04 133.19 27.8 133.89 27.8C134.61 27.8 135.2 28.04 135.66 28.52C136.12 28.98 136.35 29.55 136.35 30.23C136.35 30.87 136.12 31.43 135.66 31.91C135.2 32.39 134.61 32.63 133.89 32.63C133.19 32.63 132.6 32.39 132.12 31.91C131.66 31.43 131.43 30.87 131.43 30.23Z" fill="white"/>
<path d="M141.223 27.23C141.803 27.77 142.343 28.21 142.843 28.55C143.343 28.87 143.813 29.11 144.253 29.27C144.713 29.43 145.143 29.51 145.543 29.51C146.063 29.51 146.463 29.4 146.743 29.18C147.023 28.94 147.163 28.62 147.163 28.22C147.163 27.86 147.043 27.56 146.803 27.32C146.583 27.06 146.253 26.83 145.813 26.63C145.373 26.43 144.813 26.22 144.133 26C143.493 25.76 142.873 25.48 142.273 25.16C141.673 24.82 141.173 24.38 140.773 23.84C140.393 23.28 140.203 22.57 140.203 21.71C140.203 20.89 140.423 20.2 140.863 19.64C141.303 19.06 141.893 18.63 142.633 18.35C143.393 18.05 144.233 17.9 145.153 17.9C145.933 17.9 146.663 18 147.343 18.2C148.023 18.4 148.653 18.67 149.233 19.01C149.813 19.33 150.323 19.71 150.763 20.15L149.053 22.55C148.553 22.01 147.953 21.57 147.253 21.23C146.573 20.89 145.903 20.72 145.243 20.72C144.803 20.72 144.453 20.81 144.193 20.99C143.953 21.15 143.833 21.4 143.833 21.74C143.833 22.04 143.953 22.31 144.193 22.55C144.453 22.77 144.813 22.97 145.273 23.15C145.753 23.33 146.293 23.55 146.893 23.81C147.633 24.09 148.313 24.41 148.933 24.77C149.573 25.11 150.083 25.54 150.463 26.06C150.843 26.58 151.033 27.26 151.033 28.1C151.033 29.48 150.583 30.56 149.683 31.34C148.783 32.1 147.543 32.48 145.963 32.48C144.983 32.48 144.083 32.35 143.263 32.09C142.463 31.83 141.733 31.49 141.073 31.07C140.433 30.63 139.853 30.16 139.333 29.66L141.223 27.23ZM160.227 32.3C158.727 32.3 157.417 32 156.297 31.4C155.177 30.8 154.307 29.97 153.687 28.91C153.087 27.83 152.787 26.56 152.787 25.1C152.787 23.62 153.087 22.35 153.687 21.29C154.307 20.21 155.177 19.38 156.297 18.8C157.417 18.2 158.737 17.9 160.257 17.9C161.777 17.9 163.067 18.18 164.127 18.74C165.207 19.28 166.027 20.08 166.587 21.14C167.147 22.18 167.427 23.44 167.427 24.92C167.427 25.1 167.417 25.29 167.397 25.49C167.397 25.69 167.387 25.85 167.367 25.97H155.007V23.57H163.977L162.927 24.95C163.007 24.83 163.077 24.67 163.137 24.47C163.217 24.25 163.257 24.07 163.257 23.93C163.257 23.25 163.127 22.67 162.867 22.19C162.627 21.71 162.277 21.33 161.817 21.05C161.357 20.77 160.817 20.63 160.197 20.63C159.437 20.63 158.797 20.8 158.277 21.14C157.777 21.46 157.387 21.95 157.107 22.61C156.847 23.25 156.707 24.05 156.687 25.01C156.687 25.93 156.817 26.71 157.077 27.35C157.357 27.99 157.767 28.48 158.307 28.82C158.847 29.16 159.497 29.33 160.257 29.33C161.117 29.33 161.847 29.17 162.447 28.85C163.067 28.51 163.577 28.01 163.977 27.35L167.367 28.4C166.647 29.7 165.687 30.68 164.487 31.34C163.307 31.98 161.887 32.3 160.227 32.3ZM173.298 25.1C173.298 25.9 173.478 26.6 173.838 27.2C174.198 27.8 174.678 28.27 175.278 28.61C175.898 28.95 176.578 29.12 177.318 29.12C177.918 29.12 178.498 29.03 179.058 28.85C179.618 28.65 180.118 28.39 180.558 28.07C181.018 27.73 181.368 27.34 181.608 26.9V30.89C181.128 31.33 180.498 31.68 179.718 31.94C178.958 32.18 178.068 32.3 177.048 32.3C175.588 32.3 174.268 32 173.088 31.4C171.928 30.8 171.008 29.96 170.328 28.88C169.668 27.78 169.338 26.52 169.338 25.1C169.338 23.66 169.668 22.4 170.328 21.32C171.008 20.24 171.928 19.4 173.088 18.8C174.268 18.2 175.588 17.9 177.048 17.9C178.068 17.9 178.958 18.03 179.718 18.29C180.498 18.53 181.128 18.86 181.608 19.28V23.27C181.368 22.83 181.008 22.45 180.528 22.13C180.068 21.79 179.558 21.53 178.998 21.35C178.438 21.17 177.878 21.08 177.318 21.08C176.578 21.08 175.898 21.26 175.278 21.62C174.678 21.96 174.198 22.43 173.838 23.03C173.478 23.63 173.298 24.32 173.298 25.1Z" fill="#15ABD9"/>
<path fill-rule="evenodd" clip-rule="evenodd" d="M19.9442 0C27.4166 4.72465 34.1453 6.97362 39.9401 6.43858C40.9557 26.8879 33.4017 38.967 20.0167 44C7.10329 39.2844 -0.541391 27.7131 0.0299202 6.12119C6.82217 6.47486 13.4875 5.01484 19.9442 0ZM20.1074 6.99176C25.2039 10.211 29.7925 11.7436 33.7463 11.3899C34.4355 25.3281 29.2847 33.5713 20.1618 36.9992C20.1074 36.972 20.0439 36.9629 19.9895 36.9357V7.08244L20.1074 6.99176ZM19.9442 2.52102C26.5551 6.70157 32.5221 8.68755 37.6457 8.22506C38.5435 26.3256 31.851 37.0173 20.0077 41.479C8.57238 37.3075 1.80733 27.0783 2.30609 7.96208C8.32753 8.27947 14.2311 6.97362 19.9442 2.53916V2.52102Z" fill="url(#paint0_linear_2305_31)"/>
<defs>
<linearGradient id="paint0_linear_2305_31" x1="5" y1="8.36632e-07" x2="40" y2="58" gradientUnits="userSpaceOnUse">
<stop stop-color="#48C6EE"/>
<stop offset="1" stop-color="#15ABD9" stop-opacity="0"/>
</linearGradient>
</defs>
</svg>
