<svg width="54" height="46" viewBox="0 0 54 46" fill="none" xmlns="http://www.w3.org/2000/svg">
<g clip-path="url(#clip0_2315_630)">
<path fill-rule="evenodd" clip-rule="evenodd" d="M26.584 17.6207C31.399 20.6726 35.749 22.1164 39.4822 21.7742C40.1344 34.9627 35.2643 42.7505 26.6339 46C18.2999 42.9585 13.3705 35.5056 13.7356 21.5745C18.1189 21.8043 22.418 20.8567 26.584 17.6207ZM37.4237 12.9721C37.0992 13.1323 36.7694 13.3102 36.4449 13.4964C35.4702 14.0685 34.507 14.7665 33.5241 15.5684L31.426 13.1677C32.15 12.4957 32.9343 11.8841 33.7664 11.3432C34.429 10.9095 35.1228 10.5236 35.8385 10.1949C36.1245 10.0513 36.4106 9.91713 36.7049 9.79127C35.3225 7.34268 33.3327 5.58685 31.0796 4.50402C28.8256 3.42431 26.3031 3.00824 23.8462 3.24644C21.4059 3.48152 19.0354 4.3688 17.0767 5.89058C14.8101 7.64537 13.0886 10.2729 12.426 13.7523L12.218 14.8403L11.1341 15.0307C10.0721 15.2169 9.12345 15.4727 8.2913 15.7983C7.48516 16.1104 6.76536 16.4963 6.13709 16.9508C5.63468 17.3149 5.20092 17.7227 4.8327 18.1647C3.69266 19.5295 3.16424 21.2416 3.17673 22.9756C3.20793 27.2227 6.05179 30.5263 10.1855 31.1015H10.3103C10.5381 32.2114 10.8044 33.2744 11.1071 34.2917H10.1335L9.93375 34.274C8.77707 34.1263 7.72752 33.8538 6.77472 33.4596C2.61711 31.7381 0.0322528 27.4411 7.11373e-06 22.9839C-0.0166358 20.5312 0.745818 18.0909 2.39347 16.1145C2.92604 15.4727 3.55431 14.884 4.27308 14.3639C5.11042 13.7564 6.06843 13.2457 7.15126 12.8255C7.89707 12.5342 8.69489 12.2919 9.53536 12.0974C10.4882 8.30901 12.5217 5.39234 15.1347 3.36814C17.5791 1.47397 20.5218 0.369295 23.5508 0.0790842C26.5673 -0.212167 29.6712 0.299603 32.4579 1.63832C35.4952 3.09977 38.1477 5.53068 39.8692 8.9508C40.5619 8.84158 41.2557 8.78541 41.9443 8.79373C44.8568 8.81558 47.6653 9.8568 49.8757 12.2399C50.3396 12.7381 50.7776 13.3019 51.1895 13.9302C52.576 16.0625 53.2865 18.9106 53.2563 21.6962C53.2262 24.4318 52.4887 27.153 50.9804 29.1553C49.9974 30.4597 48.7357 31.5259 47.2233 32.3716C45.8034 33.1652 44.1537 33.7748 42.3053 34.2137C42.6423 33.0841 42.9294 31.9024 43.1634 30.6677C44.0767 30.3671 44.9109 30.0103 45.6588 29.5932C46.7989 28.9566 47.7309 28.1807 48.4278 27.2487C49.5117 25.8049 50.0453 23.764 50.0671 21.6702C50.0931 19.4733 49.5554 17.2671 48.511 15.6641C48.2233 15.2185 47.8968 14.799 47.5353 14.4107C45.9709 12.7256 43.9862 11.9881 41.9225 11.9757C40.4361 11.9621 38.8893 12.322 37.4237 12.9721ZM26.7244 22.2152C29.9812 24.2789 32.9218 25.2557 35.4474 25.0247C35.8874 33.9412 32.5941 39.2076 26.7597 41.4055C26.7223 41.392 26.6859 41.3785 26.6495 41.3639V22.2724L26.7244 22.2152ZM26.5902 19.7635C30.8165 22.443 34.6339 23.71 37.9115 23.4104C38.0894 34.7234 33.9932 40.8615 26.6339 43.8562C19.5336 41.0633 15.246 35.3163 15.3125 23.2346C19.1591 23.4364 22.9329 22.6042 26.5902 19.7635Z" fill="white"/>
</g>
<defs>
<clipPath id="clip0_2315_630">
<rect width="53.2574" height="46" fill="white"/>
</clipPath>
</defs>
</svg>
