<svg width="55" height="41" viewBox="0 0 55 41" fill="none" xmlns="http://www.w3.org/2000/svg">
<g clip-path="url(#clip0_2315_601)">
<path fill-rule="evenodd" clip-rule="evenodd" d="M1.37405 38.2519H6.45805C6.29079 38.0714 6.2002 37.833 6.20541 37.587V16.7546C6.20541 16.5019 6.30581 16.2595 6.48452 16.0807C6.66324 15.902 6.90563 15.8016 7.15838 15.8016H47.0946C47.347 15.8028 47.5887 15.9036 47.7672 16.082C47.9456 16.2605 48.0464 16.5022 48.0476 16.7546V37.587C48.0457 37.8351 47.9489 38.073 47.7772 38.2519H53.0961C53.4605 38.2519 53.81 38.3967 54.0677 38.6543C54.3254 38.912 54.4702 39.2615 54.4702 39.6259C54.4702 39.9904 54.3254 40.3399 54.0677 40.5975C53.81 40.8552 53.4605 41 53.0961 41H1.37405C1.00963 41 0.660136 40.8552 0.402451 40.5975C0.144766 40.3399 0 39.9904 0 39.6259C0 39.2615 0.144766 38.912 0.402451 38.6543C0.660136 38.3967 1.00963 38.2519 1.37405 38.2519ZM39.0497 9.75135H36.3459V13.9888H34.4533V8.80281C34.4527 8.67808 34.4768 8.55447 34.5243 8.43913C34.5718 8.32378 34.6416 8.21898 34.7298 8.13078C34.818 8.04259 34.9228 7.97274 35.0382 7.92528C35.1535 7.87782 35.2771 7.85368 35.4018 7.85427H39.063C39.2948 7.24192 39.7349 6.73085 40.3062 6.41091C40.8774 6.09096 41.5432 5.98262 42.1864 6.10492C42.8296 6.22722 43.4091 6.57234 43.823 7.07961C44.237 7.58689 44.4589 8.22384 44.4497 8.87851C44.4405 9.53318 44.2009 10.1637 43.7729 10.6591C43.3449 11.1546 42.7559 11.4833 42.1095 11.5876C41.4631 11.6918 40.8007 11.5648 40.2386 11.229C39.6766 10.8932 39.2509 10.37 39.0364 9.75135H39.0497ZM19.5027 10.4162V13.9888H17.6012V11.3648H15.4249C15.2013 11.9799 14.7681 12.4967 14.2014 12.8241C13.6346 13.1516 12.9706 13.2689 12.326 13.1554C11.6814 13.0419 11.0974 12.7049 10.6766 12.2035C10.2558 11.7021 10.0251 11.0685 10.0251 10.414C10.0251 9.75946 10.2558 9.12585 10.6766 8.6245C11.0974 8.12314 11.6814 7.78611 12.326 7.6726C12.9706 7.5591 13.6346 7.67639 14.2014 8.00387C14.7681 8.33135 15.2013 8.84807 15.4249 9.46324H18.5719C18.6964 9.46313 18.8197 9.48776 18.9346 9.5357C19.0495 9.58363 19.1537 9.65392 19.2412 9.74249C19.4134 9.92402 19.5074 10.166 19.5027 10.4162ZM14.6536 0C14.1522 0.000173626 13.6601 0.135796 13.2294 0.392537C12.7986 0.649277 12.4453 1.0176 12.2066 1.45859C11.9679 1.89958 11.8528 2.39685 11.8734 2.89787C11.894 3.39888 12.0495 3.88503 12.3236 4.30495C12.5976 4.72486 12.98 5.06295 13.4304 5.28348C13.8807 5.50401 14.3823 5.5988 14.882 5.55783C15.3818 5.51685 15.8612 5.34164 16.2696 5.05071C16.678 4.75977 17.0003 4.36392 17.2023 3.90497H22.7694V13.9888H24.6665V2.96086C24.6677 2.83576 24.644 2.71168 24.5968 2.59582C24.5496 2.47996 24.4798 2.37463 24.3916 2.28596C24.3033 2.19729 24.1983 2.12705 24.0827 2.07931C23.967 2.03158 23.843 2.0073 23.7179 2.00789H17.3264C17.1597 1.43073 16.8104 0.923128 16.331 0.561142C15.8515 0.199155 15.2677 0.00227474 14.6669 0L14.6536 0ZM30.0741 0.0443243C29.418 0.0426203 28.7825 0.272673 28.2796 0.693894C27.7766 1.11511 27.4386 1.70043 27.3252 2.34658C27.2117 2.99272 27.3302 3.65817 27.6596 4.2255C27.989 4.79284 28.5081 5.22561 29.1255 5.44746V13.9888H31.027V5.44746C31.6448 5.22549 32.1642 4.79235 32.4936 4.22455C32.8229 3.65675 32.941 2.99082 32.827 2.34438C32.713 1.69794 32.3742 1.1126 31.8705 0.691733C31.3667 0.270868 30.7305 0.0415641 30.0741 0.0443243ZM22.6586 21.2757C22.6563 20.4227 22.8961 19.5866 23.3501 18.8644H31.1157C31.5701 19.5864 31.8099 20.4226 31.8071 21.2757C31.8071 22.4888 31.3252 23.6523 30.4674 24.5102C29.6095 25.368 28.446 25.8499 27.2329 25.8499C26.0197 25.8499 24.8562 25.368 23.9984 24.5102C23.1405 23.6523 22.6586 22.4888 22.6586 21.2757ZM40.4371 21.4485V22.4059C40.4359 22.8374 40.2643 23.251 39.9596 23.5565C39.6549 23.862 39.2419 24.0347 38.8104 24.0371H37.1394C36.9309 24.9665 36.5921 25.8619 36.1332 26.6965L37.2324 27.7869C37.5364 28.0926 37.707 28.5061 37.707 28.9371C37.707 29.3682 37.5364 29.7817 37.2324 30.0873L35.9027 31.4437C35.5963 31.7479 35.182 31.9186 34.7503 31.9186C34.3185 31.9186 33.9042 31.7479 33.5978 31.4437L32.5828 30.4286C31.7302 30.9617 30.8023 31.3636 29.8303 31.621V33.0039C29.8279 33.4358 29.6553 33.8493 29.3499 34.1547C29.0446 34.4601 28.631 34.6327 28.1991 34.635H26.2755C25.8436 34.6327 25.43 34.4601 25.1246 34.1547C24.8193 33.8493 24.6467 33.4358 24.6443 33.0039V31.6387C23.6636 31.3865 22.7266 30.9875 21.8652 30.4552L20.8768 31.4437C20.5711 31.7476 20.1576 31.9183 19.7265 31.9183C19.2955 31.9183 18.882 31.7476 18.5763 31.4437L17.22 30.0873C16.916 29.7817 16.7454 29.3682 16.7454 28.9371C16.7454 28.5061 16.916 28.0926 17.22 27.7869L18.2838 26.7187C17.8126 25.8732 17.4662 24.964 17.2555 24.0194H15.6554C15.2239 24.017 14.8108 23.8443 14.5061 23.5388C14.2014 23.2332 14.0298 22.8197 14.0286 22.3882V20.469C14.0304 20.0514 14.1923 19.6504 14.4809 19.3486C14.7695 19.0467 15.1629 18.8671 15.58 18.8467H21.0363C20.7757 19.5658 20.6422 20.3247 20.6418 21.0895C20.6418 21.2048 20.6418 21.3156 20.6418 21.4308C20.6418 21.5461 20.6418 21.6569 20.6418 21.7677C20.6418 23.5063 21.3325 25.1738 22.5619 26.4032C23.7913 27.6326 25.4588 28.3232 27.1974 28.3232C28.9361 28.3232 30.6035 27.6326 31.8329 26.4032C33.0623 25.1738 33.753 23.5063 33.753 21.7677C33.753 21.6569 33.753 21.5416 33.753 21.4308C33.753 21.32 33.753 21.2048 33.753 21.0895C33.7526 20.3247 33.6191 19.5658 33.3585 18.8467H38.8857C39.3028 18.8671 39.6962 19.0467 39.9848 19.3486C40.2734 19.6504 40.4353 20.0514 40.4371 20.469V21.4308V21.4485ZM7.81881 17.2865H46.5405V37.3211H7.81881V17.2865ZM25.6638 38.9301H28.8108C28.9477 38.9334 29.0782 38.9889 29.1754 39.0854C29.2727 39.1818 29.3293 39.3118 29.3338 39.4486C29.3356 39.5191 29.3235 39.5892 29.2981 39.6549C29.2728 39.7207 29.2348 39.7808 29.1862 39.8318C29.1376 39.8829 29.0795 39.9238 29.0151 39.9524C28.9507 39.981 28.8812 39.9965 28.8108 39.9983H25.6638C25.5926 39.9977 25.5222 39.983 25.4568 39.9549C25.3914 39.9269 25.3322 39.8861 25.2826 39.8349C25.2331 39.7838 25.1943 39.7233 25.1684 39.6569C25.1425 39.5906 25.1301 39.5198 25.1319 39.4486C25.1319 39.3076 25.1879 39.1723 25.2877 39.0725C25.3874 38.9728 25.5227 38.9168 25.6638 38.9168V38.9301Z" fill="white"/>
</g>
<defs>
<clipPath id="clip0_2315_601">
<rect width="54.4657" height="41" fill="white"/>
</clipPath>
</defs>
</svg>
