<svg width="49" height="44" viewBox="0 0 49 44" fill="none" xmlns="http://www.w3.org/2000/svg">
<g clip-path="url(#clip0_2315_635)">
<path fill-rule="evenodd" clip-rule="evenodd" d="M19.6054 34.8269L22.1358 42.2646L23.4069 37.8492L22.7851 37.1645C22.5057 36.7552 22.4427 36.3971 22.5962 36.0862C22.9346 35.4172 23.6312 35.5432 24.2844 35.5432C24.9691 35.5432 25.8152 35.4133 26.0277 36.2712C26.1025 36.5584 26.012 36.8575 25.8113 37.1645L25.1856 37.8492L26.4567 42.2646L28.747 34.8269C30.3998 36.3145 35.2874 36.6096 37.1094 37.6249C37.6839 37.9476 38.2034 38.3529 38.6245 38.9039C39.7578 40.4032 39.8404 40.5016 40.1317 42.3629C40.0372 43.3428 39.4823 43.9095 38.3844 43.9961H9.97192C8.87398 43.9134 8.31911 43.3467 8.22467 42.3629C8.51587 40.5016 8.60245 40.4032 9.73187 38.9039C10.149 38.349 10.6685 37.9437 11.2469 37.6249C13.065 36.6096 17.9565 36.3105 19.6054 34.8269ZM11.0108 34.335C10.9793 34.2721 10.9439 34.217 10.9046 34.1619C10.7275 33.8707 10.5504 33.5834 10.3694 33.2528C10.1923 32.8947 10.0152 32.5602 9.85386 32.2493C9.69645 31.9149 9.54297 31.5567 9.40918 31.2026C9.29899 30.8917 9.16519 30.5375 9.03139 30.1125C8.83463 29.5104 8.27189 29.1366 7.67373 29.1366H3.82506C3.69126 29.1366 3.5614 29.1169 3.46695 29.0697C3.38038 29.0224 3.27019 28.9595 3.20329 28.8729C3.11672 28.7824 3.04588 28.6958 3.00653 28.6092C2.95931 28.5227 2.93963 28.3849 2.93963 28.2551V23.395C2.93963 23.2612 2.95931 23.1511 2.98685 23.0605C3.03408 22.97 3.09704 22.8638 3.21116 22.7497C3.29774 22.6631 3.38825 22.5923 3.47482 22.5726C3.56533 22.5254 3.69913 22.5057 3.829 22.5057H7.36678C8.07906 22.5057 8.65754 21.9902 8.79134 21.3251C8.87792 20.9473 8.96843 20.5931 9.055 20.2783C9.16519 19.9202 9.27931 19.5857 9.41311 19.2316C9.54691 18.8971 9.67677 18.5389 9.85779 18.2084C10.0152 17.8503 10.1923 17.5433 10.3458 17.2324C10.6567 16.654 10.5425 15.985 10.1018 15.5442L7.34317 12.762C7.3235 12.7423 7.3235 12.7423 7.29595 12.7423C7.20937 12.6558 7.13854 12.5652 7.09919 12.4787C7.05196 12.3921 7.05196 12.3016 7.05196 12.1678C7.05196 12.034 7.07164 11.9238 7.11886 11.8333C7.16609 11.7231 7.22905 11.6365 7.34317 11.5224L10.7472 8.13809C10.8573 8.0279 10.9439 7.96101 11.058 7.91378C11.1486 7.86656 11.2548 7.84688 11.3925 7.84688C11.5263 7.84688 11.6365 7.86656 11.727 7.91378C11.8175 7.96101 11.9238 8.02397 12.0182 8.11054H12.0379L14.5525 10.6252C15.0405 11.1131 15.8197 11.18 16.3785 10.7826C16.6697 10.6055 16.957 10.4284 17.2875 10.2474C17.6417 10.0703 17.9801 9.89321 18.291 9.73187C18.6255 9.57446 18.9836 9.42098 19.3378 9.28718C19.6487 9.177 20.0029 9.0432 20.4279 8.9094C21.03 8.71264 21.4038 8.1499 21.4038 7.55174V3.6952C21.4038 3.5614 21.4235 3.43154 21.4707 3.33709C21.5179 3.25051 21.5809 3.16 21.6478 3.07343C21.7383 2.98685 21.8249 2.91602 21.9115 2.89634C21.998 2.84912 22.1358 2.82944 22.2696 2.82944H25.6893H25.7286H26.0789C26.2127 2.82944 26.3425 2.84912 26.437 2.89634C26.5236 2.91602 26.6141 2.98685 26.7007 3.07343C26.7676 3.16 26.8345 3.25051 26.8777 3.33709C26.925 3.42366 26.9446 3.5614 26.9446 3.6952V7.5478C26.9446 8.1499 27.3224 8.70477 27.9206 8.90546C28.3417 9.03926 28.6998 9.16913 29.0106 9.28325C29.3688 9.41705 29.7229 9.57446 30.0574 9.72793C30.3683 9.88534 30.7028 10.0624 31.0609 10.2434C31.3954 10.4205 31.6827 10.5976 31.9699 10.7786C32.5248 11.18 33.304 11.1131 33.7959 10.6212L36.3105 8.10661H36.3302C36.4168 8.02003 36.527 7.9492 36.6214 7.90985C36.708 7.86262 36.8182 7.84295 36.9559 7.84295C37.0897 7.84295 37.1999 7.86262 37.2904 7.90985C37.4045 7.95707 37.4872 8.02003 37.6013 8.13416L41.0053 11.5185C41.1155 11.6287 41.1824 11.7152 41.2296 11.8294C41.2768 11.9159 41.2965 12.0261 41.2965 12.1638C41.2965 12.2976 41.2965 12.3882 41.2493 12.4747C41.202 12.5652 41.1391 12.6518 41.0525 12.7384C41.0328 12.7384 41.0328 12.7384 41.0053 12.7581L38.2467 15.5403C37.802 15.985 37.6918 16.654 38.0027 17.2285C38.1601 17.5394 38.3372 17.8503 38.4907 18.2045C38.6677 18.5389 38.8015 18.8971 38.9353 19.2276C39.0691 19.5818 39.1793 19.9202 39.2934 20.2744C39.38 20.5853 39.4705 20.9394 39.5571 21.3212C39.6909 21.9862 40.2694 22.5017 40.9817 22.5017H44.5155C44.6493 22.5017 44.7792 22.5214 44.8736 22.5686C44.9602 22.5883 45.0507 22.6552 45.1373 22.7457C45.2514 22.8598 45.3144 22.97 45.3616 23.0566C45.3813 23.1432 45.4088 23.2534 45.4088 23.3911V28.2433C45.4088 28.3771 45.3891 28.5069 45.3419 28.6014C45.2947 28.6919 45.2278 28.7785 45.1452 28.865C45.0783 28.9516 44.9681 29.0224 44.8815 29.0618C44.791 29.109 44.6572 29.1287 44.5273 29.1287H40.6747C40.0726 29.1287 39.5178 29.5065 39.3171 30.1046C39.1833 30.5257 39.0534 30.8838 38.9393 31.1947C38.8055 31.5528 38.6481 31.907 38.4946 32.2415C38.1601 32.8987 37.8374 33.5283 37.4478 34.154C37.4085 34.2091 37.373 34.2642 37.3416 34.3272H40.7101C40.8518 34.0438 40.9935 33.7369 41.143 33.4221C41.3201 33.0207 41.4972 32.6232 41.6585 32.2218C41.6782 32.1549 41.7254 32.0644 41.749 31.9975H44.5982C45.1097 31.9975 45.6016 31.9109 46.0424 31.7338C46.4871 31.5567 46.9121 31.2655 47.2702 30.9114C47.6283 30.5572 47.9156 30.1519 48.0927 29.6836C48.2697 29.2153 48.3563 28.747 48.3563 28.2393V23.3911C48.3563 22.9031 48.2461 22.4152 48.0651 21.9665C47.888 21.5219 47.6204 21.1205 47.2663 20.7663L47.2466 20.7466C46.8885 20.3885 46.4871 20.1012 46.0463 19.9202C45.6016 19.7235 45.1097 19.629 44.6021 19.629H42.174C42.174 19.5621 42.1544 19.5188 42.1268 19.4519C41.993 19.0309 41.8632 18.6058 41.7058 18.2045C41.5287 17.7834 41.3713 17.378 41.1942 17.0042C41.1745 16.957 41.1273 16.894 41.1076 16.8271L43.1146 14.8005C43.4924 14.466 43.7599 14.0685 43.9567 13.6199C44.1338 13.1752 44.2479 12.6833 44.2479 12.1757C44.2479 11.6601 44.1613 11.1997 43.9567 10.7314C43.7599 10.2867 43.4884 9.88534 43.1342 9.53117H43.1146L39.7106 6.14686C39.3564 5.79268 38.9511 5.52509 38.4828 5.32439C38.0145 5.12763 37.5462 5.03318 37.0385 5.03318C36.5506 5.03318 36.0626 5.11976 35.5943 5.32439C35.126 5.50148 34.7246 5.79268 34.3665 6.14686L32.6311 7.86262L32.4973 7.79572C32.1392 7.59896 31.7378 7.41794 31.3167 7.21724C30.9153 7.04016 30.5178 6.86307 30.1164 6.70173C30.0495 6.68205 29.959 6.63483 29.8921 6.61121V3.75816C29.8921 3.24264 29.8056 2.75467 29.6285 2.31393C29.4514 1.86531 29.1602 1.44424 28.806 1.08613C28.4282 0.728021 28.0268 0.440748 27.5782 0.263662C27.1139 0.0865754 26.6456 0 26.13 0H24.3749H23.9814H22.2263C21.7108 0 21.2503 0.0865754 20.782 0.263662C20.3413 0.440748 19.936 0.731956 19.5542 1.08613C19.1961 1.44424 18.9089 1.86531 18.7318 2.31393C18.5547 2.75467 18.4681 3.25051 18.4681 3.75816V6.60728C18.4012 6.62696 18.3107 6.67418 18.2438 6.69779C17.8424 6.8552 17.445 7.03229 17.0436 7.21331C16.6225 7.41007 16.2211 7.59109 15.863 7.79179L15.7292 7.85869L13.9937 6.14292C13.6396 5.78875 13.2342 5.49754 12.7659 5.32045C12.2976 5.12369 11.8097 5.02925 11.3217 5.02925C10.8062 5.02925 10.3458 5.11582 9.87747 5.32045C9.40918 5.51722 9.00778 5.78875 8.64967 6.14292L5.24568 9.52723H5.22601C4.87184 9.8814 4.60424 10.2867 4.40354 10.7275C4.20678 11.1918 4.11233 11.6601 4.11233 12.1678C4.11233 12.6833 4.22252 13.1713 4.40354 13.612C4.6003 14.0567 4.87184 14.4581 5.24962 14.7926L7.25266 16.8192C7.23298 16.8861 7.18576 16.953 7.16609 16.9963C6.989 17.3741 6.83159 17.7755 6.65057 18.1966C6.49316 18.598 6.35936 19.019 6.2295 19.4441C6.20982 19.511 6.18227 19.5542 6.18227 19.6211H3.7621C3.24658 19.6211 2.75861 19.7117 2.31786 19.9123C1.87318 20.0894 1.47178 20.3806 1.11761 20.7348L1.09793 20.7545C0.739827 21.1087 0.476165 21.514 0.299079 21.9547C0.110187 22.4073 0 22.9031 0 23.3911V28.2393C0 28.7549 0.0865755 29.2153 0.263662 29.6836C0.440748 30.1519 0.731956 30.5533 1.08613 30.9114C1.4403 31.2695 1.86531 31.5567 2.31393 31.7338C2.75861 31.9109 3.25051 31.9975 3.75816 31.9975H6.60728C6.62696 32.0644 6.67418 32.1549 6.69779 32.2218C6.8552 32.6232 7.03229 33.0207 7.21331 33.4221C7.36678 33.7408 7.50452 34.0478 7.64619 34.3272H11.0108V34.335ZM18.4602 24.186C18.1454 24.1978 17.9093 24.2647 17.748 24.371C17.6535 24.4339 17.5866 24.5127 17.5433 24.6071C17.4922 24.7094 17.4725 24.8393 17.4764 24.9849C17.4882 25.4178 17.7165 25.9766 18.1494 26.6219L18.1533 26.6338L19.566 28.8808C20.1327 29.7819 20.7269 30.7028 21.4628 31.3757C22.1712 32.025 23.033 32.4619 24.1742 32.4658C25.406 32.4697 26.3111 32.0132 27.0391 31.3246C27.7986 30.6123 28.4007 29.6363 28.9949 28.6565L30.5847 26.0356C30.8799 25.3587 30.9901 24.9062 30.9232 24.6386C30.8799 24.4812 30.7067 24.4025 30.4116 24.3907C30.3486 24.3867 30.2857 24.3867 30.2188 24.3867C30.1479 24.3907 30.0732 24.3946 29.9945 24.3985C29.9512 24.4025 29.9118 24.3985 29.8725 24.3907C29.7308 24.3985 29.5852 24.3867 29.4357 24.367L29.9787 21.9547C27.0706 21.9193 25.0754 21.4117 22.7221 19.9045C21.9469 19.4126 21.7147 18.8459 20.9395 18.901C20.357 19.0112 19.8651 19.2748 19.4716 19.6959C19.0978 20.0973 18.8144 20.6482 18.6295 21.3526L18.9403 24.1939C18.7751 24.2136 18.6137 24.2057 18.4602 24.186ZM30.9625 23.6784C31.3561 23.7964 31.6079 24.0483 31.7063 24.4497C31.8204 24.8983 31.6945 25.524 31.3206 26.378C31.3128 26.3937 31.3049 26.4094 31.297 26.4252L29.6875 29.0775C29.0657 30.1007 28.4361 31.1239 27.594 31.9109C26.7243 32.7255 25.6499 33.2686 24.1821 33.2646C22.8126 33.2607 21.7816 32.7373 20.9355 31.9621C20.117 31.2144 19.4913 30.2502 18.8971 29.3018L17.4843 27.0548C16.9688 26.2835 16.7012 25.5791 16.6815 25.0006C16.6736 24.7291 16.7209 24.4812 16.8192 24.2647C16.9255 24.0365 17.0868 23.8476 17.3033 23.702C17.4056 23.6351 17.5197 23.5761 17.6456 23.5288C17.5551 22.3129 17.5197 20.7742 17.5787 19.4873C17.6102 19.1843 17.6653 18.8774 17.7519 18.5704C18.1139 17.2797 19.0191 16.2408 20.1406 15.5285C20.5341 15.2766 20.967 15.0681 21.4274 14.9028C24.1388 13.915 27.7396 14.4542 29.6678 16.5359C30.4509 17.3859 30.9468 18.5114 31.053 19.9989L30.9625 23.6784Z" fill="white"/>
</g>
<defs>
<clipPath id="clip0_2315_635">
<rect width="48.3563" height="44" fill="white"/>
</clipPath>
</defs>
</svg>
