<svg width="49" height="44" viewBox="0 0 49 44" fill="none" xmlns="http://www.w3.org/2000/svg">
<g clip-path="url(#clip0_2315_624)">
<path d="M0.988853 33.6209L17.9971 4.18867C18.7475 2.83185 19.838 1.69364 21.1615 0.885903C22.1197 0.319375 23.2126 0.0205078 24.3258 0.0205078C25.439 0.0205078 26.5318 0.319375 27.4901 0.885903C28.8057 1.69967 29.8868 2.84204 30.6268 4.20054L30.7177 4.37458L47.3621 33.2768C48.1418 34.5708 48.5522 36.0537 48.5487 37.5644C48.553 38.5845 48.3172 39.5912 47.8605 40.5033C47.3344 41.4867 46.5493 42.3075 45.5901 42.8766C44.2278 43.6604 42.671 44.0417 41.1007 43.9762H7.00108C6.91802 43.9762 6.831 43.9762 6.74793 43.9762C5.67836 43.9697 4.62247 43.7351 3.65085 43.2879C2.57845 42.7966 1.66666 42.0123 1.0205 41.0254C0.372054 40.0166 0.0185833 38.8466 8.31496e-08 37.6475C-0.00658549 36.3291 0.291206 35.0269 0.870191 33.8424C0.909745 33.7633 0.949299 33.6842 0.992809 33.609L0.988853 33.6209Z" fill="white"/>
<path fill-rule="evenodd" clip-rule="evenodd" d="M3.59547 35.116L20.6037 5.69569C22.6685 2.15955 25.9396 2.05671 28.0439 5.69569L44.7832 34.764C46.4128 37.4497 45.7364 41.0531 41.1007 40.9819H7.00108C3.86839 41.0531 1.97771 38.5414 3.59547 35.116Z" fill="#15ABD9"/>
<path d="M22.7634 32.8892C23.0607 32.593 23.4378 32.3897 23.8486 32.304C24.2595 32.2183 24.6864 32.254 25.0773 32.4066C25.3746 32.5198 25.6443 32.6951 25.8684 32.9208C26.243 33.2948 26.468 33.7928 26.5013 34.321C26.5162 34.5062 26.5055 34.6925 26.4696 34.8748C26.4384 35.0581 26.3825 35.2364 26.3035 35.4048C26.1266 35.7988 25.8366 36.1313 25.4704 36.3601C25.1042 36.589 24.6783 36.7039 24.2467 36.6903C23.9374 36.6833 23.6329 36.6119 23.3528 36.4807C22.849 36.2509 22.4516 35.8379 22.2413 35.3257C22.1784 35.1585 22.1346 34.9846 22.1108 34.8076C22.0892 34.6355 22.0892 34.4614 22.1108 34.2894C22.138 34.0148 22.213 33.7471 22.3323 33.4983C22.4372 33.263 22.5909 33.0527 22.7832 32.8813L22.7634 32.8892ZM25.9752 28.8507C25.9 30.7414 22.7001 30.7414 22.6289 28.8507C22.3046 25.6112 21.4739 17.9219 21.5016 14.8802C21.5293 13.9428 22.2927 13.385 23.3013 13.1754C23.6238 13.1075 23.9527 13.0743 24.2823 13.0765C24.6144 13.0763 24.9457 13.1094 25.2711 13.1754C26.2956 13.3969 27.1025 13.9665 27.1025 14.9277V15.0305L25.9791 28.8744L25.9752 28.8507Z" fill="white"/>
</g>
<defs>
<clipPath id="clip0_2315_624">
<rect width="48.6041" height="44" fill="white"/>
</clipPath>
</defs>
</svg>
