<svg width="44" height="48" viewBox="0 0 44 48" fill="none" xmlns="http://www.w3.org/2000/svg">
<g clip-path="url(#clip0_2315_607)">
<path fill-rule="evenodd" clip-rule="evenodd" d="M21.7629 0C29.9066 5.16211 37.2637 7.6043 43.5777 7.02695C44.6805 29.3309 36.4437 42.5027 21.8473 48C7.75155 42.8547 -0.585946 30.2496 0.0324133 6.68867C7.44452 7.07656 14.7164 5.47422 21.7629 0ZM21.9387 7.63398C27.4922 11.1539 32.5094 12.8191 36.8148 12.4262C37.5668 27.6355 31.95 36.6176 21.9965 40.366C21.9336 40.343 21.8719 40.3191 21.8094 40.2957V7.73281L21.9387 7.63398ZM21.7715 2.75586C28.9801 7.325 35.4926 9.48711 41.0816 8.97578C42.0574 28.7184 34.7668 40.3781 21.8469 45.2437C9.36952 40.6895 1.98866 29.5324 2.53632 8.67617C9.09765 9.01992 15.5344 7.60156 21.7715 2.75586Z" fill="white"/>
</g>
<defs>
<clipPath id="clip0_2315_607">
<rect width="43.6762" height="48" fill="white"/>
</clipPath>
</defs>
</svg>
