<svg width="38" height="46" viewBox="0 0 38 46" fill="none" xmlns="http://www.w3.org/2000/svg">
<g clip-path="url(#clip0_2315_613)">
<path d="M24.6022 4.76172C24.4862 4.76172 24.3851 4.74675 24.284 4.71305C23.7674 4.71305 23.3332 4.29378 23.3332 3.76221V1.89046H14.113V3.76221C14.113 4.24512 13.7274 4.66439 13.2594 4.69808C13.1584 4.73177 13.0423 4.74675 12.9263 4.74675H9.45231V8.62126H27.6419V4.743H24.5685L24.6022 4.76172ZM8.55387 28.0874C9.58708 28.0874 10.4256 28.9259 10.4256 29.9591C10.4256 30.9924 9.58708 31.8309 8.55387 31.8309C7.52067 31.8309 6.68213 30.9924 6.68213 29.9591C6.68213 28.9259 7.52067 28.0874 8.55387 28.0874ZM6.39014 23.4717C6.13184 23.0861 6.23291 22.562 6.62223 22.3037C7.00781 22.0454 7.5319 22.1465 7.7902 22.5358L8.25065 23.2171L10.0737 21.001C10.3695 20.6416 10.901 20.5892 11.2604 20.8849C11.6198 21.1807 11.6722 21.7122 11.3765 22.0716L8.85335 25.1413C8.7972 25.2124 8.72982 25.276 8.6512 25.3322C8.26562 25.5905 7.74154 25.4894 7.48324 25.1001L6.39014 23.4717ZM6.39014 16.988C6.13184 16.6024 6.23291 16.0783 6.62223 15.82C7.00781 15.5617 7.5319 15.6628 7.7902 16.0521L8.25065 16.7334L10.0737 14.5135C10.3695 14.1541 10.901 14.1017 11.2604 14.3975C11.6198 14.6932 11.6722 15.2248 11.3765 15.5841L8.85335 18.6538C8.7972 18.7249 8.72982 18.7886 8.6512 18.8447C8.26562 19.103 7.74154 19.002 7.48324 18.6126L6.39014 16.988ZM25.9049 45.7492C25.7365 45.8989 25.5044 46 25.2686 46C25.2199 46 25.1675 46 25.1188 45.985H2.10384C1.53483 45.985 1.00326 45.7529 0.617676 45.3674C0.232096 44.9818 0 44.4652 0 43.8774V7.43083C0 6.84684 0.232096 6.33024 0.617676 5.94466C1.00326 5.55908 1.51986 5.32699 2.10384 5.32699H7.58057V4.29004C7.58057 3.90446 7.73031 3.55632 7.99984 3.28678C8.25065 3.03597 8.60254 2.86751 9.00309 2.86751H12.245V1.56852C12.245 1.13428 12.4284 0.748698 12.7129 0.467936C12.9937 0.183431 13.3792 0 13.8135 0H23.6851C24.1193 0 24.5049 0.183431 24.7856 0.467936C25.0701 0.752441 25.2536 1.13428 25.2536 1.56852V2.87126H28.1772C28.5628 2.87126 28.911 3.03971 29.1805 3.29053C29.4313 3.54134 29.5998 3.9082 29.5998 4.29378V5.33073H35.0765C35.6605 5.33073 36.1771 5.56283 36.5627 5.94841C36.9482 6.33398 37.1803 6.85059 37.1803 7.43457V33.7251C37.2552 34.1032 37.1766 34.3952 36.8958 34.6759L26.021 45.6818C25.9873 45.7155 25.9723 45.7305 25.9386 45.7492H25.9049ZM24.3177 44.0946C24.3177 31.509 22.7305 33.0026 35.2562 33.0026V7.43083C35.2562 7.38216 35.2412 7.31478 35.1888 7.28109C35.1551 7.2474 35.1064 7.2137 35.0391 7.2137H29.5623V9.11914C29.5623 9.50472 29.4126 9.85287 29.1431 10.1224C28.8923 10.3732 28.5404 10.5417 28.1398 10.5417H8.98438C8.59879 10.5417 8.23193 10.3732 7.98112 10.1224C7.94743 10.0887 7.93245 10.055 7.89876 10.0213C7.69661 9.77051 7.56559 9.45231 7.56559 9.11914V7.2137H2.08887C2.0402 7.2137 1.97282 7.22868 1.93913 7.28109C1.90544 7.31478 1.87174 7.38216 1.87174 7.43083V43.8774C1.87174 43.9448 1.88672 43.9935 1.93913 44.0272C1.97282 44.0609 2.02148 44.0946 2.08887 44.0946H24.3027H24.3177ZM15.4344 30.6217C14.9178 30.6217 14.4836 30.2025 14.4836 29.6709C14.4836 29.1543 14.9028 28.7201 15.4344 28.7201H24.4674C24.984 28.7201 25.4183 29.1393 25.4183 29.6709C25.4183 30.1875 24.999 30.6217 24.4674 30.6217H15.4344ZM15.4344 17.0404C14.9178 17.0404 14.4836 16.6211 14.4836 16.0895C14.4836 15.5729 14.9028 15.1387 15.4344 15.1387H29.3452C29.8618 15.1387 30.2961 15.5579 30.2961 16.0895C30.2961 16.6061 29.8768 17.0404 29.3452 17.0404H15.4344ZM15.4344 23.8311C14.9178 23.8311 14.4836 23.4118 14.4836 22.8802C14.4836 22.3636 14.9028 21.9294 15.4344 21.9294H29.3452C29.8618 21.9294 30.2961 22.3486 30.2961 22.8802C30.2961 23.3968 29.8768 23.8311 29.3452 23.8311H15.4344Z" fill="white"/>
</g>
<defs>
<clipPath id="clip0_2315_613">
<rect width="37.2065" height="46" fill="white"/>
</clipPath>
</defs>
</svg>
